<?xml version="1.0" encoding="iso-8859-1"?>
<!-- Generator: Adobe Illustrator 19.0.0, SVG Export Plug-In . SVG Version: 6.00 Build 0)  -->
<svg version="1.1" id="Layer_1" xmlns="http://www.w3.org/2000/svg" xmlns:xlink="http://www.w3.org/1999/xlink" x="0px" y="0px"
	 viewBox="0 0 317.926 317.926" style="enable-background:new 0 0 317.926 317.926;" xml:space="preserve">
<g>
	<g>
		<path d="M316.402,25.019c-1.671-2.493-4.475-3.988-7.476-3.988h-81.62c-0.021,0-0.043,0-0.065,0h-90.036c-0.022,0-0.043,0-0.065,0
			H64.995c-3.65,0-6.939,2.205-8.325,5.582L0.675,162.993c-1.141,2.776-0.821,5.938,0.85,8.43c1.671,2.492,4.475,3.988,7.476,3.988
			h72.205c0.017,0,0.034,0.002,0.051,0.002c0.011,0,0.022-0.002,0.033-0.002h31.41v103.484h-11.205c-4.971,0-9,4.029-9,9
			s4.029,9,9,9h80.938c4.971,0,9-4.029,9-9s-4.029-9-9-9h-11.205V175.411h0.079c0.017,0,0.034,0.002,0.051,0.002
			c0.011,0,0.022-0.002,0.033-0.002h81.541c3.65,0,6.939-2.205,8.325-5.582l55.995-136.38
			C318.392,30.673,318.072,27.512,316.402,25.019z M143.288,39.031h70.643l-11.712,28.525h-70.643L143.288,39.031z M71.029,39.031
			h52.802l-11.712,28.525H59.318L71.029,39.031z M75.226,157.411h-52.8l11.711-28.525h52.801L75.226,157.411z M41.528,110.887
			l10.414-25.365c0.228,0.017,0.456,0.035,0.688,0.035h52.098l-10.4,25.33H41.528z M153.226,274.895h-22.527v-99.484h22.527V274.895
			z M165.326,157.411H94.683l11.712-28.525h70.643L165.326,157.411z M113.786,110.886l10.4-25.33h70.643l-10.4,25.33H113.786z
			 M246.897,157.411h-62.113l11.712-28.525h62.113L246.897,157.411z M265.999,110.886h-62.113l10.4-25.33H276.4L265.999,110.886z
			 M283.79,67.556h-62.113l11.712-28.525h62.113L283.79,67.556z"/>
	</g>
</g>
<g>
</g>
<g>
</g>
<g>
</g>
<g>
</g>
<g>
</g>
<g>
</g>
<g>
</g>
<g>
</g>
<g>
</g>
<g>
</g>
<g>
</g>
<g>
</g>
<g>
</g>
<g>
</g>
<g>
</g>
</svg>
