<?xml version="1.0" encoding="iso-8859-1"?>
<!-- Generator: Adobe Illustrator 19.0.0, SVG Export Plug-In . SVG Version: 6.00 Build 0)  -->
<svg version="1.1" id="Capa_1" xmlns="http://www.w3.org/2000/svg" xmlns:xlink="http://www.w3.org/1999/xlink" x="0px" y="0px"
	 viewBox="0 0 512.001 512.001" style="enable-background:new 0 0 512.001 512.001;" xml:space="preserve">
<path style="fill:#C6C6C6;" d="M306.001,512h-100c-8.284,0-15-6.716-15-15v-51c0-8.284,6.716-15,15-15h100c8.284,0,15,6.716,15,15
	v51C321.001,505.284,314.285,512,306.001,512z"/>
<path style="fill:#9D9D9D;" d="M306.001,431h-50v81h50c8.284,0,15-6.716,15-15v-51C321.001,437.716,314.285,431,306.001,431z"/>
<path style="fill:#EEEEEE;" d="M497.001,461h-482c-5.075,0-9.806-2.566-12.574-6.821s-3.196-9.62-1.139-14.259l84.243-190
	c2.404-5.423,7.78-8.92,13.712-8.92h313.514c5.933,0,11.308,3.497,13.712,8.92l84.243,190c2.057,4.64,1.629,10.005-1.139,14.259
	C506.804,458.433,502.076,461,497.001,461z"/>
<g>
	<path style="fill:#C6C6C6;" d="M510.713,439.92l-84.243-190c-2.404-5.423-7.78-8.92-13.712-8.92H256.001v220h241
		c5.075,0,9.806-2.566,12.574-6.821S512.771,444.56,510.713,439.92z"/>
	<polygon style="fill:#C6C6C6;" points="339.674,366 477.938,366 464.637,336 335.24,336 321.199,241 290.873,241 304.914,336 
		207.088,336 221.129,241 190.803,241 176.762,336 47.365,336 34.064,366 172.327,366 158.288,461 188.614,461 202.654,366 
		309.348,366 323.388,461 353.714,461 	"/>
</g>
<g>
	<path style="fill:#FFD664;" d="M256.001,150.5c-24.813,0-45-20.187-45-45s20.187-45,45-45c24.813,0,45,20.187,45,45
		S280.814,150.5,256.001,150.5z"/>
	<path style="fill:#FFD664;" d="M256.001,52.758c-8.284,0-15-6.716-15-15V15c0-8.284,6.716-15,15-15c8.284,0,15,6.716,15,15v22.758
		C271.001,46.042,264.285,52.758,256.001,52.758z"/>
	<path style="fill:#FFD664;" d="M256.001,211c-8.284,0-15-6.716-15-15v-22.758c0-8.284,6.716-15,15-15c8.284,0,15,6.716,15,15V196
		C271.001,204.284,264.285,211,256.001,211z"/>
	<path style="fill:#FFD664;" d="M189.833,84.619L170.126,73.24c-7.174-4.142-9.632-13.316-5.49-20.49
		c4.141-7.174,13.315-9.634,20.49-5.49l19.709,11.379c7.174,4.142,9.632,13.316,5.49,20.49
		C206.182,86.305,197.006,88.761,189.833,84.619z"/>
	<path style="fill:#FFD664;" d="M164.635,158.25c-4.142-7.174-1.684-16.348,5.49-20.49l19.709-11.379
		c7.175-4.142,16.348-1.684,20.49,5.49s1.684,16.348-5.49,20.49l-19.709,11.379C177.954,167.88,168.779,165.428,164.635,158.25z"/>
</g>
<polygon style="fill:#9D9D9D;" points="477.938,366 464.637,336 335.24,336 321.199,241 290.873,241 304.914,336 256.001,336 
	256.001,366 309.348,366 323.388,461 353.714,461 339.674,366 "/>
<g>
	<path style="fill:#FFBB54;" d="M256.001,60.5v90c24.813,0,45-20.187,45-45S280.814,60.5,256.001,60.5z"/>
	<path style="fill:#FFBB54;" d="M256.001,0v52.758c8.284,0,15-6.716,15-15V15C271.001,6.716,264.285,0,256.001,0z"/>
	<path style="fill:#FFBB54;" d="M256.001,158.242V211c8.284,0,15-6.716,15-15v-22.758
		C271.001,164.958,264.285,158.242,256.001,158.242z"/>
	<path style="fill:#FFBB54;" d="M326.876,163.74l-19.709-11.379c-7.174-4.142-9.632-13.316-5.49-20.49
		c4.141-7.175,13.315-9.634,20.49-5.49l19.709,11.379c7.174,4.142,9.632,13.316,5.49,20.49
		C343.224,165.426,334.048,167.882,326.876,163.74z"/>
	<path style="fill:#FFBB54;" d="M301.677,79.129c-4.142-7.174-1.684-16.348,5.49-20.49l19.709-11.379
		c7.174-4.143,16.349-1.684,20.49,5.49c4.142,7.174,1.684,16.348-5.49,20.49l-19.709,11.379
		C314.997,88.759,305.821,86.307,301.677,79.129z"/>
</g>
<g>
</g>
<g>
</g>
<g>
</g>
<g>
</g>
<g>
</g>
<g>
</g>
<g>
</g>
<g>
</g>
<g>
</g>
<g>
</g>
<g>
</g>
<g>
</g>
<g>
</g>
<g>
</g>
<g>
</g>
</svg>
