<?xml version="1.0" encoding="iso-8859-1"?>
<!-- Generator: Adobe Illustrator 19.0.0, SVG Export Plug-In . SVG Version: 6.00 Build 0)  -->
<svg version="1.1" id="Capa_1" xmlns="http://www.w3.org/2000/svg" xmlns:xlink="http://www.w3.org/1999/xlink" x="0px" y="0px"
	 viewBox="0 0 480 480" style="enable-background:new 0 0 480 480;" xml:space="preserve">
<path style="fill:#4398D1;" d="M423.98,472h-224l-192-352h224L423.98,472z"/>
<g>
	<circle style="fill:#FDB62F;" cx="375.98" cy="104" r="56"/>
	<g>
		<path id="SVGCleanerId_0" style="fill:#FDB62F;" d="M367.98,0h16v24h-16V0z"/>
	</g>
	<g>
		<path id="SVGCleanerId_1" style="fill:#FDB62F;" d="M367.98,184h16v24h-16V184z"/>
	</g>
	<g>
		<path id="SVGCleanerId_2" style="fill:#FDB62F;" d="M271.98,96h24v16h-24V96z"/>
	</g>
	<g>
		<path id="SVGCleanerId_3" style="fill:#FDB62F;" d="M455.98,96h24v16h-24V96z"/>
	</g>
	<g>
		<path id="SVGCleanerId_4" style="fill:#FDB62F;" d="M296.779,36.118l11.314-11.314l16.971,16.971l-11.314,11.314L296.779,36.118z"
			/>
	</g>
	<g>
		<path id="SVGCleanerId_5" style="fill:#FDB62F;" d="M426.898,166.198l11.314-11.314l16.971,16.971l-11.314,11.314L426.898,166.198
			z"/>
	</g>
	<g>
		<path id="SVGCleanerId_6" style="fill:#FDB62F;" d="M296.782,171.882l16.971-16.971l11.314,11.314l-16.971,16.971L296.782,171.882
			z"/>
	</g>
	<g>
		<path id="SVGCleanerId_7" style="fill:#FDB62F;" d="M426.894,41.771L443.865,24.8l11.314,11.314l-16.971,16.971L426.894,41.771z"
			/>
	</g>
</g>
<path style="fill:#F7962E;" d="M342.74,148.992c24.826,18.386,59.855,13.166,78.241-11.66c14.429-19.483,14.665-46.044,0.583-65.78
	C402.742,103.992,375.508,130.747,342.74,148.992z"/>
<path style="fill:#DEDEDE;" d="M7.98,120v56l160,296h32L7.98,120z"/>
<path style="fill:#3E8CC7;" d="M156.684,392.624L199.98,472h224L301.628,247.688L156.684,392.624z"/>
<path style="fill:#3570AB;" d="M309.196,376l-39.352-72h62.496l-8.72-16H261.1l-39.352-72h62.592l-8.72-16h-62.616l-43.72-80h-18.24
	l43.72,80h-53.76l-43.72-80h-18.24l43.72,80H51.62l8.72,16h71.2l39.352,72h-71.2l8.72,16h71.264l39.352,72H147.62l8.72,16h71.36
	l43.72,80h18.24l-43.72-80h53.76l43.72,80h18.24l-43.72-80h62.4l-8.72-16H309.196z M149.748,216h53.76l39.352,72H189.1L149.748,216z
	 M237.196,376l-39.352-72h53.76l39.352,72H237.196z"/>
<path d="M375.98,168c35.346,0,64-28.654,64-64s-28.654-64-64-64s-64,28.654-64,64C312.02,139.33,340.65,167.96,375.98,168z
	 M375.98,56c26.51,0,48,21.49,48,48s-21.49,48-48,48s-48-21.49-48-48C328.006,77.501,349.481,56.026,375.98,56z"/>
<path id="SVGCleanerId_0_1_" d="M367.98,0h16v24h-16V0z"/>
<path id="SVGCleanerId_1_1_" d="M367.98,184h16v24h-16V184z"/>
<path id="SVGCleanerId_2_1_" d="M271.98,96h24v16h-24V96z"/>
<path id="SVGCleanerId_3_1_" d="M455.98,96h24v16h-24V96z"/>
<path id="SVGCleanerId_4_1_" d="M296.779,36.118l11.314-11.314l16.971,16.971l-11.314,11.314L296.779,36.118z"/>
<path id="SVGCleanerId_5_1_" d="M426.898,166.198l11.314-11.314l16.971,16.971l-11.314,11.314L426.898,166.198z"/>
<path id="SVGCleanerId_6_1_" d="M296.782,171.882l16.971-16.971l11.314,11.314l-16.971,16.971L296.782,171.882z"/>
<path id="SVGCleanerId_7_1_" d="M426.894,41.771L443.865,24.8l11.314,11.314l-16.971,16.971L426.894,41.771z"/>
<path d="M160.94,475.808c1.399,2.584,4.102,4.194,7.04,4.192h256c4.418,0.001,8.001-3.58,8.001-7.999
	c0-1.34-0.336-2.658-0.977-3.833l-192-352c-1.402-2.57-4.096-4.169-7.024-4.168h-224c-0.601,0.013-1.199,0.09-1.784,0.232
	c-0.064,0-0.128,0-0.192,0c-0.78,0.209-1.522,0.538-2.2,0.976c-0.2,0.132-0.393,0.277-0.576,0.432
	c-0.66,0.501-1.243,1.096-1.728,1.768c-0.112,0.168-0.264,0.304-0.368,0.48c-0.17,0.324-0.315,0.661-0.432,1.008
	c-0.105,0.208-0.198,0.422-0.28,0.64c-0.255,0.775-0.39,1.584-0.4,2.4V176c-0.001,1.329,0.329,2.638,0.96,3.808L160.94,475.808z
	 M15.98,173.976v-22.6L186.5,464h-13.72L15.98,173.976z M83.228,128l39.272,72H60.732L21.46,128H83.228z M155.228,128l39.272,72
	h-53.768l-39.272-72H155.228z M314.5,288h-53.768l-39.272-72h53.768L314.5,288z M284.732,464l-39.272-72h53.768l39.272,72H284.732z
	 M204.732,464l-39.272-72h61.768l39.272,72H204.732z M117.46,304h61.768l39.272,72h-61.768L117.46,304z M108.732,288L69.46,216
	h61.768l39.272,72H108.732z M236.732,376l-39.272-72h53.768l39.272,72H236.732z M269.46,304h53.768l39.272,72h-53.768L269.46,304z
	 M242.5,288h-53.768l-39.272-72h53.768L242.5,288z M356.732,464l-39.272-72h53.768l39.272,72H356.732z M266.5,200h-53.768
	l-39.272-72h53.768L266.5,200z"/>
<g>
</g>
<g>
</g>
<g>
</g>
<g>
</g>
<g>
</g>
<g>
</g>
<g>
</g>
<g>
</g>
<g>
</g>
<g>
</g>
<g>
</g>
<g>
</g>
<g>
</g>
<g>
</g>
<g>
</g>
</svg>
