<?xml version="1.0" encoding="iso-8859-1"?>
<!-- Generator: Adobe Illustrator 18.1.1, SVG Export Plug-In . SVG Version: 6.00 Build 0)  -->
<svg version="1.1" id="Capa_1" xmlns="http://www.w3.org/2000/svg" xmlns:xlink="http://www.w3.org/1999/xlink" x="0px" y="0px"
	 viewBox="0 0 612 612" style="enable-background:new 0 0 612 612;" xml:space="preserve">
<g>
	<path d="M563.791,393.326c-0.402-2.429-1.943-4.517-4.144-5.62L355.206,285.383c-3.365-29.092-27.452-51.959-57.079-53.391
		l34.991-17.906c3.047-1.559,4.698-4.946,4.049-8.308L300.98,18.483c-0.565-2.928-2.774-5.266-5.664-5.999L246.969,0.235
		c-2.387-0.603-4.918-0.03-6.811,1.544c-1.892,1.575-2.917,3.96-2.756,6.418l15.398,234.921c0.109,1.667,0.763,3.225,1.814,4.464
		c-12.211,11.069-19.893,27.048-19.893,44.789c0,5.459,0.74,10.748,2.103,15.783l-24.717-18.305
		c-2.747-2.035-6.516-2.013-9.243,0.065L51.135,405.545c-2.371,1.808-3.486,4.823-2.858,7.74l10.508,48.755
		c0.52,2.408,2.159,4.42,4.411,5.415c0.993,0.44,2.053,0.659,3.11,0.659c1.339,0,2.671-0.35,3.862-1.039l197.649-114.712
		l-21.091,251.3c-0.176,2.145,0.549,4.266,2.005,5.851c1.458,1.584,3.511,2.486,5.664,2.486h81.556c0.011,0.002,0.021,0,0.021,0
		c4.259,0,7.702-3.445,7.702-7.695c0-0.455-0.038-0.9-0.115-1.333l-21.524-256.471c4.794-2.388,9.222-5.391,13.19-8.91
		l-1.625,28.716c-0.194,3.419,1.895,6.553,5.124,7.692l179.927,63.382c0.835,0.294,1.699,0.437,2.552,0.437
		c2.029,0,4.013-0.802,5.486-2.295l34.996-35.538C563.413,398.232,564.195,395.755,563.791,393.326z M311.658,292.37
		c0,9.089-7.395,16.485-16.485,16.485s-16.487-7.395-16.487-16.485c0-9.092,7.395-16.49,16.487-16.49
		C304.262,275.882,311.658,283.278,311.658,292.37z"/>
</g>
<g>
</g>
<g>
</g>
<g>
</g>
<g>
</g>
<g>
</g>
<g>
</g>
<g>
</g>
<g>
</g>
<g>
</g>
<g>
</g>
<g>
</g>
<g>
</g>
<g>
</g>
<g>
</g>
<g>
</g>
</svg>
